<?xml version="1.0" standalone="no"?><!DOCTYPE svg PUBLIC "-//W3C//DTD SVG 1.1//EN" "http://www.w3.org/Graphics/SVG/1.1/DTD/svg11.dtd"><svg t="1678117866608" class="icon" viewBox="0 0 1024 1024" version="1.1" xmlns="http://www.w3.org/2000/svg" p-id="2220" xmlns:xlink="http://www.w3.org/1999/xlink" width="200" height="200"><path d="M768 187.733333a85.333333 85.333333 0 0 1 85.333333 85.333334v375.466666a85.333333 85.333333 0 0 1-85.333333 85.333334H256a85.333333 85.333333 0 0 1-85.333333-85.333334V273.066667a85.333333 85.333333 0 0 1 85.333333-85.333334h512z m0 85.333334H256v375.466666h512V273.066667z" fill="#FB8B45" p-id="2221"></path><path d="M349.866667 520.533333a42.666667 42.666667 0 0 1 42.581333 39.867734L392.533333 563.2v17.066667a42.666667 42.666667 0 0 1-85.248 2.798933L307.2 580.266667v-17.066667a42.666667 42.666667 0 0 1 42.666667-42.666667zM486.4 503.466667a42.666667 42.666667 0 0 1 42.581333 39.867733L529.066667 546.133333v34.133334a42.666667 42.666667 0 0 1-85.248 2.798933L443.733333 580.266667v-34.133334a42.666667 42.666667 0 0 1 42.666667-42.666666zM631.466667 469.333333a42.666667 42.666667 0 0 1 42.581333 39.867734L674.133333 512v68.266667a42.666667 42.666667 0 0 1-85.248 2.798933L588.8 580.266667v-68.266667a42.666667 42.666667 0 0 1 42.666667-42.666667zM679.9872 330.564267a34.133333 34.133333 0 0 1 41.710933 53.9648l-2.218666 1.706666-144.418134 102.4a34.133333 34.133333 0 0 1-41.4208-1.467733l-2.1504-1.928533-72.448-70.638934-116.292266 74.9056a34.133333 34.133333 0 0 1-45.568-7.936l-1.621334-2.286933a34.133333 34.133333 0 0 1 7.936-45.568l2.286934-1.621333 139.1616-89.6a34.133333 34.133333 0 0 1 40.106666 2.286933l2.2016 1.979733 71.5264 69.7344 121.207467-85.930666z" fill="#FB8B45" p-id="2222"></path><path d="M618.154667 307.4048l84.5824 9.352533a34.133333 34.133333 0 0 1-4.949334 68.027734l-2.542933-0.170667-84.599467-9.352533A34.133333 34.133333 0 0 1 615.594667 307.2l2.56 0.187733z" fill="#FB8B45" p-id="2223"></path><path d="M705.262933 326.656a34.133333 34.133333 0 0 1 32.512 33.143467l-0.017066 2.56-3.925334 82.978133a34.133333 34.133333 0 0 1-68.215466-0.682667l0.017066-2.525866 3.925334-82.9952a34.133333 34.133333 0 0 1 33.160533-32.512l2.56 0.017066z" fill="#FB8B45" p-id="2224"></path><path d="M675.259733 313.8048l2.56 0.187733 24.917334 2.7648a34.133333 34.133333 0 0 1-4.949334 68.027734l-2.542933-0.170667-24.917333-2.7648a34.133333 34.133333 0 0 1 4.949333-68.0448zM434.107733 347.630933a34.133333 34.133333 0 0 1 41.710934 53.9648l-2.218667 1.706667-17.749333 12.5952a34.133333 34.133333 0 0 1-41.693867-53.981867l2.218667-1.706666 17.749333-12.578134z" fill="#FC6404" p-id="2225"></path><path d="M802.133333 776.533333a42.666667 42.666667 0 0 1 2.798934 85.248L802.133333 861.866667H238.933333a42.666667 42.666667 0 0 1-2.798933-85.248L238.933333 776.533333h563.2z" fill="#FB8B45" p-id="2226"></path></svg>