<?xml version="1.0" standalone="no"?><!DOCTYPE svg PUBLIC "-//W3C//DTD SVG 1.1//EN" "http://www.w3.org/Graphics/SVG/1.1/DTD/svg11.dtd"><svg t="1678117853442" class="icon" viewBox="0 0 1024 1024" version="1.1" xmlns="http://www.w3.org/2000/svg" p-id="1468" xmlns:xlink="http://www.w3.org/1999/xlink" width="200" height="200"><path d="M0 0h1024v1024H0V0z" fill="#202425" opacity=".01" p-id="1469"></path><path d="M989.866667 512c0 263.918933-213.947733 477.866667-477.866667 477.866667S34.133333 775.918933 34.133333 512 248.081067 34.133333 512 34.133333s477.866667 213.947733 477.866667 477.866667z" fill="#FF7744" p-id="1470"></path><path d="M512 221.866667A51.2 51.2 0 0 1 563.2 273.066667v187.733333H750.933333a51.2 51.2 0 0 1 0 102.4h-187.733333V750.933333a51.2 51.2 0 0 1-102.4 0v-187.733333H273.066667a51.2 51.2 0 0 1 0-102.4h187.733333V273.066667A51.2 51.2 0 0 1 512 221.866667z" fill="#FFFFFF" p-id="1471"></path></svg>