<?xml version="1.0" standalone="no"?><!DOCTYPE svg PUBLIC "-//W3C//DTD SVG 1.1//EN" "http://www.w3.org/Graphics/SVG/1.1/DTD/svg11.dtd"><svg t="1678117863449" class="icon" viewBox="0 0 1024 1024" version="1.1" xmlns="http://www.w3.org/2000/svg" p-id="1935" xmlns:xlink="http://www.w3.org/1999/xlink" width="200" height="200"><path d="M415.07 75.13l196.13 0.04c-31.59-7.06-64.43-10.8-98.14-10.8-33.66 0-66.45 3.72-97.99 10.76z" fill="#00D995" p-id="1936"></path><path d="M363.99 89.78l298.26 0.06a445.045 445.045 0 0 0-51.06-14.67l-196.13-0.04a444.28 444.28 0 0 0-51.07 14.65z" fill="#01D996" p-id="1937"></path><path d="M327.67 104.42l370.89 0.08a444.746 444.746 0 0 0-36.31-14.66l-298.26-0.06a444.808 444.808 0 0 0-36.32 14.64z" fill="#01D997" p-id="1938"></path><path d="M298.4 119.07l429.43 0.09a446.362 446.362 0 0 0-29.27-14.66l-370.89-0.08c-9.96 4.54-19.72 9.43-29.27 14.65z" fill="#01D898" p-id="1939"></path><path d="M273.56 133.72l479.1 0.1a449.22 449.22 0 0 0-24.83-14.66l-429.43-0.09c-8.45 4.62-16.73 9.51-24.84 14.65z" fill="#01D899" p-id="1940"></path><path d="M251.88 148.37l522.45 0.11a449.52 449.52 0 0 0-21.67-14.66l-479.1-0.1c-7.37 4.68-14.6 9.56-21.68 14.65z" fill="#01D89A" p-id="1941"></path><path d="M232.61 163.02l560.99 0.12c-6.28-5.06-12.71-9.94-19.26-14.66l-522.45-0.11c-6.56 4.72-12.99 9.6-19.28 14.65z" fill="#01D79B" p-id="1942"></path><path d="M215.31 177.67l595.59 0.12c-5.64-5.03-11.41-9.92-17.3-14.66l-560.99-0.12c-5.89 4.75-11.66 9.64-17.3 14.66z" fill="#01D79C" p-id="1943"></path><path d="M199.63 192.33l626.95 0.13c-5.11-5.01-10.33-9.9-15.68-14.66l-595.59-0.12c-5.35 4.75-10.57 9.64-15.68 14.65z" fill="#02D79D" p-id="1944"></path><path d="M185.33 206.98l655.53 0.14c-4.65-4.99-9.42-9.88-14.29-14.66l-626.95-0.13c-4.87 4.77-9.63 9.65-14.29 14.65z" fill="#02D79E" p-id="1945"></path><path d="M172.27 221.63l681.64 0.14c-4.25-4.98-8.6-9.87-13.05-14.66l-655.53-0.14c-4.46 4.79-8.81 9.68-13.06 14.66z" fill="#02D69F" p-id="1946"></path><path d="M160.29 236.28l705.61 0.15c-3.89-4.97-7.89-9.86-11.98-14.66l-681.64-0.14c-4.1 4.8-8.1 9.68-11.99 14.65z" fill="#02D6A0" p-id="1947"></path><path d="M149.29 250.93l727.6 0.15c-3.57-4.96-7.23-9.85-10.99-14.66l-705.61-0.15c-3.77 4.82-7.43 9.7-11 14.66z" fill="#02D6A1" p-id="1948"></path><path d="M139.18 265.59l747.82 0.15c-3.27-4.96-6.65-9.84-10.11-14.66l-727.6-0.15c-3.47 4.82-6.84 9.7-10.11 14.66z" fill="#02D5A2" p-id="1949"></path><path d="M129.89 280.24l766.39 0.16c-3-4.95-6.09-9.84-9.28-14.66l-747.82-0.15c-3.19 4.82-6.29 9.7-9.29 14.65z" fill="#02D5A3" p-id="1950"></path><path d="M121.38 294.89l783.4 0.16a454.19 454.19 0 0 0-8.51-14.66l-766.39-0.16a473.34 473.34 0 0 0-8.5 14.66z" fill="#02D5A4" p-id="1951"></path><path d="M113.58 309.55l798.98 0.17c-2.51-4.94-5.1-9.83-7.79-14.66l-783.4-0.16c-2.68 4.82-5.28 9.71-7.79 14.65z" fill="#03D4A5" p-id="1952"></path><path d="M106.47 324.2l813.21 0.17c-2.28-4.93-4.65-9.82-7.11-14.66l-798.98-0.17c-2.46 4.84-4.84 9.72-7.12 14.66z" fill="#03D4A6" p-id="1953"></path><path d="M100 338.85l826.15 0.17a446.14 446.14 0 0 0-6.47-14.66l-813.21-0.17c-2.24 4.85-4.4 9.73-6.47 14.66z" fill="#03D4A7" p-id="1954"></path><path d="M94.14 353.51l837.86 0.17c-1.87-4.93-3.82-9.81-5.85-14.66L100 338.85c-2.04 4.84-3.99 9.73-5.86 14.66z" fill="#03D4A8" p-id="1955"></path><path d="M88.88 368.16l848.38 0.18c-1.67-4.92-3.42-9.81-5.26-14.66l-837.86-0.17c-1.84 4.84-3.59 9.73-5.26 14.65z" fill="#03D3A9" p-id="1956"></path><path d="M84.19 382.81l857.75 0.18c-1.48-4.92-3.04-9.81-4.68-14.66l-848.38-0.18c-1.65 4.86-3.21 9.74-4.69 14.66z" fill="#03D3AA" p-id="1957"></path><path d="M80.05 397.47l866.03 0.18c-1.3-4.92-2.68-9.8-4.14-14.66l-857.75-0.18c-1.46 4.85-2.84 9.74-4.14 14.66z" fill="#03D3AB" p-id="1958"></path><path d="M76.44 412.12l873.24 0.18c-1.12-4.92-2.32-9.8-3.61-14.66l-866.03-0.18c-1.27 4.86-2.48 9.74-3.6 14.66z" fill="#04D2AC" p-id="1959"></path><path d="M73.35 426.77l879.42 0.18c-0.95-4.91-1.98-9.8-3.08-14.66l-873.25-0.17c-1.11 4.86-2.14 9.74-3.09 14.65z" fill="#04D2AD" p-id="1960"></path><path d="M70.77 441.43l884.56 0.18c-0.78-4.91-1.63-9.8-2.57-14.66l-879.42-0.18c-0.93 4.86-1.79 9.75-2.57 14.66z" fill="#04D2AE" p-id="1961"></path><path d="M68.69 456.08l888.72 0.18c-0.61-4.91-1.31-9.8-2.08-14.66l-884.56-0.18c-0.77 4.87-1.47 9.75-2.08 14.66z" fill="#04D1AF" p-id="1962"></path><path d="M67.1 470.74l891.89 0.18c-0.45-4.91-0.98-9.79-1.58-14.66l-888.72-0.18c-0.61 4.86-1.14 9.75-1.59 14.66z" fill="#04D1B0" p-id="1963"></path><path d="M66 485.39l894.09 0.18c-0.29-4.91-0.65-9.79-1.1-14.65l-891.89-0.18c-0.44 4.86-0.81 9.75-1.1 14.65z" fill="#04D1B1" p-id="1964"></path><path d="M65.37 500.05l895.35 0.19c-0.13-4.91-0.34-9.79-0.63-14.65L66 485.41c-0.29 4.85-0.5 9.73-0.63 14.64z" fill="#04D1B2" p-id="1965"></path><path d="M65.37 500.05c-0.11 4.05-0.17 8.11-0.17 12.18 0 0.83 0.01 1.65 0.02 2.47l895.64 0.19c0.01-0.89 0.02-1.77 0.02-2.66 0-4.01-0.06-8.01-0.16-12" fill="#05D0B3" p-id="1966"></path><path d="M65.52 529.36l895.03 0.18c0.18-4.86 0.28-9.75 0.31-14.65l-895.64-0.19c0.02 4.9 0.12 9.79 0.3 14.66z" fill="#05D0B4" p-id="1967"></path><path d="M66.32 544.01l893.42 0.18c0.34-4.86 0.62-9.75 0.8-14.65l-895.03-0.18c0.2 4.9 0.47 9.79 0.81 14.65z" fill="#05D0B5" p-id="1968"></path><path d="M67.58 558.67l890.89 0.18c0.5-4.86 0.92-9.75 1.27-14.65l-893.42-0.18c0.34 4.9 0.76 9.78 1.26 14.65z" fill="#05CFB6" p-id="1969"></path><path d="M69.34 573.32l887.37 0.18c0.67-4.86 1.25-9.75 1.76-14.65l-890.89-0.18c0.51 4.91 1.1 9.79 1.76 14.65z" fill="#05CFB7" p-id="1970"></path><path d="M71.59 587.98l882.87 0.18c0.83-4.86 1.58-9.74 2.26-14.65l-887.38-0.19c0.67 4.91 1.42 9.8 2.25 14.66z" fill="#05CFB8" p-id="1971"></path><path d="M74.33 602.63l877.38 0.18c1-4.86 1.91-9.74 2.75-14.65l-882.87-0.18c0.83 4.91 1.74 9.8 2.74 14.65z" fill="#05CEB9" p-id="1972"></path><path d="M77.6 617.29l870.84 0.18c1.17-4.85 2.26-9.74 3.27-14.65l-877.38-0.18c1.01 4.91 2.1 9.79 3.27 14.65z" fill="#06CEBA" p-id="1973"></path><path d="M81.39 631.94l863.25 0.18c1.35-4.85 2.61-9.74 3.8-14.65l-870.84-0.18c1.18 4.91 2.44 9.8 3.79 14.65z" fill="#06CEBB" p-id="1974"></path><path d="M85.71 646.6l854.59 0.18c1.53-4.85 2.97-9.73 4.33-14.65l-863.25-0.18c1.37 4.91 2.81 9.8 4.33 14.65z" fill="#06CEBD" p-id="1975"></path><path d="M90.59 661.25l844.83 0.17c1.71-4.85 3.34-9.73 4.89-14.65l-854.59-0.18c1.54 4.93 3.16 9.82 4.87 14.66z" fill="#06CDBE" p-id="1976"></path><path d="M96.06 675.91l833.89 0.17c1.91-4.84 3.73-9.73 5.47-14.65l-844.83-0.17c1.74 4.92 3.56 9.8 5.47 14.65z" fill="#06CDBF" p-id="1977"></path><path d="M102.12 690.57l821.76 0.17c2.11-4.84 4.13-9.73 6.07-14.65l-833.89-0.17c1.93 4.92 3.96 9.8 6.06 14.65z" fill="#06CDC0" p-id="1978"></path><path d="M108.81 705.22l808.38 0.17c2.32-4.84 4.55-9.72 6.69-14.65l-821.76-0.17c2.14 4.93 4.37 9.81 6.69 14.65z" fill="#06CCC1" p-id="1979"></path><path d="M116.15 719.88l793.69 0.16c2.54-4.83 4.99-9.72 7.35-14.65l-808.38-0.17c2.36 4.94 4.81 9.82 7.34 14.66z" fill="#07CCC2" p-id="1980"></path><path d="M124.18 734.53l777.61 0.16a441.8 441.8 0 0 0 8.04-14.65l-793.69-0.16c2.6 4.94 5.28 9.82 8.04 14.65z" fill="#07CCC3" p-id="1981"></path><path d="M132.95 749.19l760.06 0.16c3.02-4.82 5.94-9.71 8.78-14.65l-777.61-0.16c2.84 4.94 5.76 9.83 8.77 14.65z" fill="#07CBC4" p-id="1982"></path><path d="M142.52 763.85l740.92 0.15c3.28-4.82 6.48-9.7 9.57-14.65l-760.06-0.16c3.1 4.95 6.29 9.84 9.57 14.66z" fill="#07CBC5" p-id="1983"></path><path d="M152.93 778.5l720.1 0.15c3.57-4.81 7.04-9.7 10.42-14.65l-740.92-0.15c3.36 4.96 6.84 9.84 10.4 14.65z" fill="#07CBC6" p-id="1984"></path><path d="M164.25 793.16l697.44 0.14c3.88-4.8 7.65-9.69 11.33-14.65l-720.1-0.15c3.69 4.97 7.46 9.86 11.33 14.66z" fill="#07CBC7" p-id="1985"></path><path d="M176.61 807.82l672.73 0.14c4.22-4.8 8.34-9.68 12.36-14.65l-697.44-0.14c4.01 4.97 8.13 9.85 12.35 14.65z" fill="#07CAC8" p-id="1986"></path><path d="M190.08 822.48l645.78 0.13c4.6-4.78 9.1-9.67 13.48-14.65l-672.73-0.14c4.38 4.98 8.87 9.87 13.47 14.66z" fill="#08CAC9" p-id="1987"></path><path d="M204.83 837.13l616.28 0.13c5.03-4.77 9.95-9.66 14.75-14.65l-645.78-0.13c4.8 4.99 9.72 9.88 14.75 14.65z" fill="#08CACA" p-id="1988"></path><path d="M221.05 851.79l583.83 0.12a450.43 450.43 0 0 0 16.23-14.65l-616.28-0.13c5.28 5.02 10.69 9.91 16.22 14.66z" fill="#08C9CB" p-id="1989"></path><path d="M239 866.45l547.93 0.11c6.11-4.73 12.1-9.62 17.95-14.65l-583.83-0.12c5.85 5.04 11.84 9.93 17.95 14.66z" fill="#08C9CC" p-id="1990"></path><path d="M249.36 874.25l527.2 0.11c3.5-2.55 6.95-5.15 10.37-7.8L239 866.45c3.41 2.65 6.86 5.25 10.36 7.8z" fill="#08C9CC" p-id="1991"></path><path d="M513.06 960.06c98.49 0 189.56-31.8 263.5-85.7l-527.2-0.11c73.97 53.96 165.11 85.81 263.7 85.81z" fill="#08C9CC" p-id="1992"></path><path d="M556.03 482.75c50.58-16.8 87.16-64.55 87.16-120.7 0-70.11-57.03-127.16-127.14-127.16s-127.14 57.05-127.14 127.16c0 56.14 36.56 103.88 87.12 120.68C355.68 501.97 263.4 606.48 263.4 732.16v19.17h282.35c-1.53-4.15-2.48-8.55-2.48-13.19V603.82c0-21.12 17.17-38.3 38.26-38.3h123.9c-37.99-43.1-90.26-73.28-149.4-82.77z" fill="#FFFFFF" p-id="1993"></path><path d="M614.55 701.17c0-10.57 8.56-19.15 19.13-19.15h57.8c10.57 0 19.13 8.58 19.13 19.15s-8.56 19.15-19.13 19.15h-57.8c-10.56 0-19.13-8.58-19.13-19.15m-0.25-58.09c0-10.57 8.56-19.15 19.17-19.15h71.5c10.57 0 19.13 8.58 19.13 19.15s-8.56 19.13-19.13 19.13h-71.5c-10.61 0-19.17-8.56-19.17-19.13m-33.13-51.03c-7.07 0-12.75 5.7-12.75 12.75v134.32c0 7.05 5.69 12.77 12.75 12.77h176.08c7.03 0 12.75-5.72 12.75-12.77V604.8c0-7.05-5.72-12.75-12.75-12.75H581.17z" fill="#FFFFFF" p-id="1994"></path><path d="M642.22 682.02h2.97l32.53-19.81h-2.97zM769.98 604.21l-48.37 29.46c0.25 0.45 0.48 0.91 0.7 1.38l47.7-29.05v-1.2c0-0.2-0.02-0.39-0.03-0.59zM568.42 728.78l46.16-28.11c0.02-0.64 0.06-1.27 0.14-1.9l-46.3 28.2v1.81z" fill="#ECFEFB" p-id="1995"></path><path d="M639.25 682.02h2.97l32.53-19.81h-2.97zM615.09 696.74l-46.67 28.42v1.81l46.3-28.2c0.08-0.69 0.21-1.37 0.37-2.03zM721.61 633.67l48.37-29.46a13.6 13.6 0 0 0-0.19-1.7l-48.99 29.84c0.29 0.43 0.55 0.87 0.81 1.32z" fill="#EBFEFB" p-id="1996"></path><path d="M720.8 632.35l48.99-29.84c-0.1-0.54-0.22-1.06-0.38-1.58l-49.54 30.17c0.33 0.41 0.64 0.82 0.93 1.25zM636.27 682.02h2.98l32.53-19.81h-2.98zM615.76 694.51l-47.34 28.83v1.82l46.67-28.42c0.18-0.77 0.41-1.51 0.67-2.23z" fill="#EAFEFB" p-id="1997"></path><path d="M633.26 682.04c0.14 0 0.28-0.02 0.42-0.02h2.59l32.53-19.81h-2.97l-32.57 19.83zM719.87 631.1l49.54-30.17c-0.16-0.5-0.36-0.99-0.58-1.46l-50 30.45c0.37 0.39 0.72 0.77 1.04 1.18zM616.87 692.02l-48.45 29.51v1.81l47.34-28.83c0.32-0.86 0.68-1.69 1.11-2.49z" fill="#E9FEFB" p-id="1998"></path><path d="M656.91 662.21l-88.49 53.89v1.81l91.46-55.7zM716.42 627.78l50.79-30.93c-0.33-0.41-0.68-0.8-1.06-1.17l-51.13 31.14c0.49 0.3 0.95 0.62 1.4 0.96z" fill="#E6FDFA" p-id="1999"></path><path d="M618.97 688.94l-50.55 30.78v1.81l48.45-29.51c0.6-1.1 1.3-2.13 2.1-3.08zM629.58 682.47c1.19-0.26 2.42-0.4 3.68-0.43l32.56-19.83h-2.97l-33.27 20.26zM718.84 629.92l50-30.45c-0.22-0.47-0.46-0.93-0.73-1.36l-50.41 30.7c0.39 0.36 0.77 0.73 1.14 1.11z" fill="#E8FEFB" p-id="2000"></path><path d="M717.69 628.81l50.41-30.7c-0.27-0.44-0.57-0.87-0.89-1.27l-50.79 30.93c0.44 0.33 0.86 0.68 1.27 1.04zM629.58 682.47l33.27-20.26h-2.97l-91.46 55.7v1.81l50.55-30.78a19.12 19.12 0 0 1 10.61-6.47z" fill="#E7FEFA" p-id="2001"></path><path d="M715.02 626.82l51.13-31.14c-0.39-0.38-0.81-0.73-1.24-1.05l-51.44 31.33c0.54 0.26 1.05 0.54 1.55 0.86zM653.94 662.21l-85.52 52.08v1.81l88.49-53.89z" fill="#E5FDFA" p-id="2002"></path><path d="M713.48 625.95l51.44-31.33c-0.46-0.34-0.93-0.66-1.43-0.94l-51.74 31.51c0.59 0.23 1.16 0.48 1.73 0.76zM650.96 662.21l-82.54 50.27v1.81l85.52-52.08z" fill="#E4FDFA" p-id="2003"></path><path d="M711.74 625.19l51.74-31.51c-0.54-0.3-1.1-0.56-1.69-0.78l-52.01 31.67c0.68 0.17 1.33 0.38 1.96 0.62zM647.99 662.21l-79.57 48.46v1.81l82.54-50.27z" fill="#E3FDFA" p-id="2004"></path><path d="M709.79 624.57l52.01-31.67c-0.64-0.25-1.31-0.45-2-0.59l-52.25 31.82c0.76 0.1 1.51 0.25 2.24 0.44zM645.01 662.21l-76.59 46.64v1.82l79.57-48.46z" fill="#E2FDF9" p-id="2005"></path><path d="M704.96 623.93c0.88 0 1.74 0.08 2.59 0.2l52.25-31.82c-0.82-0.17-1.67-0.25-2.54-0.25h-0.02l-52.35 31.88h0.07zM642.03 662.21l-73.61 44.83v1.81l76.59-46.64z" fill="#E1FDF9" p-id="2006"></path><path d="M704.89 623.93l52.35-31.88h-2.97l-52.35 31.88zM639.06 662.21l-70.64 43.02v1.81l73.61-44.83z" fill="#E0FDF9" p-id="2007"></path><path d="M636.09 662.21l-67.67 41.21v1.81l70.64-43.02zM701.92 623.93l52.35-31.88h-2.98l-52.35 31.88z" fill="#DFFDF9" p-id="2008"></path><path d="M698.94 623.93l52.35-31.88h-2.97l-52.35 31.88zM633.46 662.21c-0.11 0-0.21-0.01-0.32-0.02l-64.72 39.42v1.81l67.67-41.21h-2.63z" fill="#DEFDF9" p-id="2009"></path><path d="M630.54 661.97l-62.12 37.83v1.81l64.72-39.42c-0.88-0.01-1.75-0.09-2.6-0.22zM695.97 623.93l52.35-31.88h-2.97L693 623.93z" fill="#DDFDF8" p-id="2010"></path><path d="M693 623.93l52.35-31.88h-2.98l-52.35 31.88zM628.34 661.5l-59.92 36.49v1.81l62.12-37.83c-0.75-0.12-1.48-0.27-2.2-0.47z" fill="#DCFDF8" p-id="2011"></path><path d="M626.41 660.86l-57.99 35.32v1.81l59.92-36.49c-0.66-0.18-1.3-0.39-1.93-0.64zM690.02 623.93l52.35-31.88h-2.97l-52.35 31.88z" fill="#DBFDF8" p-id="2012"></path><path d="M687.05 623.93l52.35-31.88h-2.98l-52.35 31.88zM624.7 660.09l-56.28 34.27v1.82l57.99-35.32c-0.58-0.23-1.16-0.49-1.71-0.77z" fill="#DAFDF8" p-id="2013"></path><path d="M623.17 659.21l-54.75 33.34v1.81l56.28-34.27c-0.53-0.27-1.04-0.57-1.53-0.88zM684.07 623.93l52.35-31.88h-2.97l-52.35 31.88z" fill="#D9FDF8" p-id="2014"></path><path d="M681.1 623.93l52.35-31.88h-2.98l-52.35 31.88zM621.79 658.24l-53.37 32.5v1.81l54.75-33.34c-0.48-0.3-0.94-0.63-1.38-0.97z" fill="#D8FDF7" p-id="2015"></path><path d="M678.12 623.93l52.35-31.88h-2.97l-52.35 31.88zM620.54 657.19l-52.12 31.74v1.81l53.37-32.5c-0.44-0.33-0.85-0.68-1.25-1.05z" fill="#D7FDF7" p-id="2016"></path><path d="M619.41 656.07l-50.99 31.05v1.81l52.12-31.74c-0.4-0.36-0.77-0.73-1.13-1.12zM675.15 623.93l52.35-31.88h-2.97l-52.35 31.88z" fill="#D6FCF7" p-id="2017"></path><path d="M672.18 623.93l52.35-31.88h-2.98l-52.35 31.88zM618.38 654.88l-49.96 30.43v1.81l50.99-31.05c-0.36-0.38-0.7-0.78-1.03-1.19z" fill="#D5FCF7" p-id="2018"></path><path d="M617.47 653.63l-49.05 29.87v1.81l49.96-30.43c-0.32-0.41-0.63-0.82-0.91-1.25zM669.2 623.93l52.35-31.88h-2.97l-52.35 31.88z" fill="#D4FCF7" p-id="2019"></path><path d="M666.23 623.93l52.35-31.88h-2.98l-52.35 31.88zM616.66 652.3l-48.24 29.38v1.82l49.05-29.87c-0.29-0.43-0.56-0.87-0.81-1.33z" fill="#D3FCF7" p-id="2020"></path><path d="M663.25 623.93l52.35-31.88h-2.97l-52.35 31.88zM615.98 650.91l-47.56 28.96v1.81l48.24-29.38c-0.25-0.45-0.47-0.92-0.68-1.39z" fill="#D2FCF6" p-id="2021"></path><path d="M660.28 623.93l52.35-31.88h-2.97l-52.35 31.88zM615.4 649.45l-46.98 28.61v1.81l47.56-28.96c-0.22-0.48-0.41-0.96-0.58-1.46z" fill="#D1FCF6" p-id="2022"></path><path d="M657.31 623.93l52.35-31.88h-2.98l-52.35 31.88zM614.93 647.92l-46.51 28.33v1.81l46.98-28.61c-0.18-0.5-0.33-1.01-0.47-1.53z" fill="#D0FCF6" p-id="2023"></path><path d="M614.59 646.33l-46.17 28.11v1.81l46.51-28.33c-0.13-0.52-0.25-1.05-0.34-1.59zM654.33 623.93l52.35-31.88h-2.97l-52.35 31.88z" fill="#CFFCF6" p-id="2024"></path><path d="M651.36 623.93l52.35-31.88h-2.98l-52.35 31.88zM614.37 644.65l-45.95 27.98v1.81l46.17-28.11c-0.1-0.56-0.17-1.12-0.22-1.68z" fill="#CEFCF6" p-id="2025"></path><path d="M614.29 643.08c0-0.07 0.01-0.13 0.01-0.2l-45.88 27.94v1.81l45.95-27.98c-0.04-0.52-0.08-1.04-0.08-1.57zM648.38 623.93l52.35-31.88h-2.97l-52.35 31.88z" fill="#CDFCF5" p-id="2026"></path><path d="M614.41 641l-45.99 28.01v1.81l45.88-27.94c0.01-0.63 0.04-1.26 0.11-1.88zM645.41 623.93l52.35-31.88h-2.97l-52.35 31.88z" fill="#CCFCF5" p-id="2027"></path><path d="M614.74 638.98l-46.32 28.21v1.82L614.41 641c0.07-0.68 0.19-1.36 0.33-2.02zM642.44 623.93l52.35-31.88h-2.98l-52.35 31.88z" fill="#CBFCF5" p-id="2028"></path><path d="M615.37 636.79l-46.95 28.59v1.81l46.32-28.21c0.16-0.75 0.38-1.48 0.63-2.19zM639.46 623.93l52.35-31.88h-2.97l-52.35 31.88z" fill="#CAFCF5" p-id="2029"></path><path d="M636.49 623.93l52.35-31.88h-2.98l-52.35 31.88zM616.41 634.34l-47.99 29.23v1.81l46.95-28.59c0.29-0.84 0.64-1.66 1.04-2.45z" fill="#C9FCF5" p-id="2030"></path><path d="M618.3 631.38l-49.88 30.38v1.81l47.99-29.23c0.54-1.04 1.17-2.03 1.89-2.96zM633.46 623.93h0.05l52.35-31.88h-2.97L630 624.26c1.13-0.21 2.28-0.33 3.46-0.33z" fill="#C8FCF4" p-id="2031"></path><path d="M630 624.26l52.89-32.21h-2.98l-111.49 67.9v1.81l49.88-30.38c2.83-3.66 6.95-6.26 11.7-7.12z" fill="#C7FCF4" p-id="2032"></path><path d="M568.42 658.14l108.52-66.09h2.97l-111.49 67.9z" fill="#C6FBF4" p-id="2033"></path><path d="M568.42 656.33l105.55-64.28h2.97l-108.52 66.09z" fill="#C5FBF4" p-id="2034"></path><path d="M568.42 654.52l102.57-62.47h2.98l-105.55 64.28z" fill="#C4FBF4" p-id="2035"></path><path d="M568.42 652.7l99.6-60.65h2.97l-102.57 62.47z" fill="#C3FBF3" p-id="2036"></path><path d="M568.42 650.89l96.62-58.84h2.98l-99.6 60.65z" fill="#C2FBF3" p-id="2037"></path><path d="M568.42 649.08l93.65-57.03h2.97l-96.62 58.84z" fill="#C1FBF3" p-id="2038"></path><path d="M568.42 647.27l90.68-55.22h2.97l-93.65 57.03z" fill="#C0FBF3" p-id="2039"></path><path d="M568.42 645.46l87.7-53.41h2.98l-90.68 55.22z" fill="#BFFBF3" p-id="2040"></path><path d="M568.42 643.65l84.73-51.6h2.97l-87.7 53.41z" fill="#BEFBF2" p-id="2041"></path><path d="M568.42 641.84l81.75-49.79h2.98l-84.73 51.6z" fill="#BDFBF2" p-id="2042"></path><path d="M568.42 640.02l78.78-47.97h2.97l-81.75 49.79z" fill="#BCFBF2" p-id="2043"></path><path d="M568.42 638.21l75.81-46.16h2.97l-78.78 47.97z" fill="#BBFBF2" p-id="2044"></path><path d="M568.42 636.4l72.83-44.35h2.98l-75.81 46.16z" fill="#BAFBF2" p-id="2045"></path><path d="M568.42 634.59l69.86-42.54h2.97l-72.83 44.35z" fill="#B9FBF1" p-id="2046"></path><path d="M568.42 632.78l66.88-40.73h2.98l-69.86 42.54z" fill="#B8FBF1" p-id="2047"></path><path d="M568.42 630.97l63.91-38.92h2.97l-66.88 40.73z" fill="#B7FBF1" p-id="2048"></path><path d="M568.42 629.16l60.93-37.11h2.98l-63.91 38.92z" fill="#B6FAF1" p-id="2049"></path><path d="M568.42 627.35l57.96-35.3h2.97l-60.93 37.11z" fill="#B5FAF1" p-id="2050"></path><path d="M568.42 625.53l54.99-33.48h2.97l-57.96 35.3z" fill="#B4FAF1" p-id="2051"></path><path d="M568.42 623.72l52.01-31.67h2.98l-54.99 33.48z" fill="#B3FAF0" p-id="2052"></path><path d="M568.42 621.91l49.04-29.86h2.97l-52.01 31.67z" fill="#B2FAF0" p-id="2053"></path><path d="M568.42 620.1l46.06-28.05h2.98l-49.04 29.86z" fill="#B1FAF0" p-id="2054"></path><path d="M568.42 618.29l43.09-26.24h2.97l-46.06 28.05z" fill="#B0FAF0" p-id="2055"></path><path d="M568.42 616.48l40.12-24.43h2.97l-43.09 26.24z" fill="#AFFAF0" p-id="2056"></path><path d="M568.42 614.67l37.14-22.62h2.98l-40.12 24.43z" fill="#ADFAEF" p-id="2057"></path><path d="M568.42 612.86l34.17-20.81h2.97l-37.14 22.62z" fill="#ACFAEF" p-id="2058"></path><path d="M568.42 611.04l31.19-18.99h2.98l-34.17 20.81z" fill="#ABFAEF" p-id="2059"></path><path d="M568.42 609.23l28.22-17.18h2.97l-31.19 18.99z" fill="#AAFAEF" p-id="2060"></path><path d="M568.42 607.42l25.25-15.37h2.97l-28.22 17.18z" fill="#A9FAEF" p-id="2061"></path><path d="M568.42 605.61l22.27-13.56h2.98l-25.25 15.37z" fill="#A8FAEE" p-id="2062"></path><path d="M568.42 603.8l19.3-11.75h2.97l-22.27 13.56z" fill="#A7FAEE" p-id="2063"></path><path d="M584.74 592.05l-15.94 9.71c-0.16 0.65-0.27 1.32-0.33 2.01l19.25-11.72h-2.98z" fill="#A6FAEE" p-id="2064"></path><path d="M581.77 592.05l-12.17 7.41c-0.34 0.73-0.6 1.5-0.8 2.3l15.94-9.71h-2.97z" fill="#A5F9EE" p-id="2065"></path><path d="M581.17 592.05c-1.03 0-2.02 0.13-2.97 0.36l-6.69 4.07c-0.77 0.89-1.41 1.9-1.91 2.98l12.17-7.41h-0.6z" fill="#A4F9EE" p-id="2066"></path><path d="M571.51 596.48l6.69-4.07c-2.65 0.63-4.97 2.08-6.69 4.07z" fill="#A3F9ED" p-id="2067"></path></svg>