<?xml version="1.0" standalone="no"?><!DOCTYPE svg PUBLIC "-//W3C//DTD SVG 1.1//EN" "http://www.w3.org/Graphics/SVG/1.1/DTD/svg11.dtd"><svg t="1678117856350" class="icon" viewBox="0 0 1024 1024" version="1.1" xmlns="http://www.w3.org/2000/svg" p-id="1620" xmlns:xlink="http://www.w3.org/1999/xlink" width="200" height="200"><path d="M512.23 63.93L124.96 287.52V734.7l387.27 223.59L899.5 734.7V287.52z" fill="#5D11A0" p-id="1621"></path><path d="M363.34 708.91c0 66.36 14.32 129.29 39.59 186.29l109.29 63.1L899.5 734.7V287.52l-66.73-38.53c-3.04-0.06-6-0.46-9.06-0.46-254.26 0-460.37 206.12-460.37 460.38z" fill="#7A28BF" p-id="1622"></path><path d="M874.5 273.09c1.2 13.51 2.07 27.11 2.07 40.93 0 253.16-205.23 458.39-458.39 458.39-111.56 0-213.74-39.92-293.22-106.17v68.47L512.23 958.3 899.5 734.7V287.52l-25-14.43z" fill="#7214AC" p-id="1623"></path><path d="M512 958.29l-387.5-223.7V287.14L512 63.4l387.5 223.74v447.45L512 958.29zM160.3 713.92L512 916.96l351.7-203.04V307.81L512 104.73 160.3 307.81v406.11z" fill="#9E4AD1" p-id="1624"></path><path d="M727.75 352.13V670.1c0 42.34-33.71 77.13-75.51 77.13H372.3a74.41 74.41 0 0 1-61.49-32.36 76.776 76.776 0 0 1-14.56-45.04V351.86c0-42.61 34.25-77.4 76.05-77.4h49.35c-1.62 4.85-2.16 9.98-2.16 15.1 0 27.51 21.58 49.89 48 49.89h101.67c26.7 0 48.27-22.38 48.27-49.89 0-5.12-0.81-10.25-2.16-14.83h36.68c41.82 0 75.8 34.79 75.8 77.4z" fill="#FF812A" p-id="1625"></path><path d="M727.75 352.13v162.09c-54.21 125.41-179.08 213.06-324.44 213.06-32.09 0-63.11-4.31-92.5-12.4a76.776 76.776 0 0 1-14.56-45.04V351.86c0-42.61 34.25-77.4 76.05-77.4h49.35c-1.62 4.85-2.16 9.98-2.16 15.1 0 27.51 21.58 49.89 48 49.89h101.67c26.7 0 48.27-22.38 48.27-49.89 0-5.12-0.81-10.25-2.16-14.83h36.68c41.82 0 75.8 34.79 75.8 77.4z" fill="#FD6800" p-id="1626"></path><path d="M617.37 289.33c0 27.51-21.58 49.89-48.27 49.89H467.7c-26.7 0-48.27-22.38-48.27-49.89 0-5.12 0.81-10.25 2.16-14.83h193.64c1.33 4.85 2.14 9.71 2.14 14.83z" fill="#FD6800" p-id="1627"></path><path d="M571.77 396.62c7.33-6.31 18.26-6 25.23 0.72l0.45 0.45 1.18 1.34c6.35 7.87 5.85 19.24-1.18 26.51l-58.02 60.01v3.73h49.34l1.54 0.06c10.84 0.86 18.94 10.35 18.08 21.19-0.81 10.24-9.35 18.13-19.62 18.14h-49.34v27.21h50.79l1.48 0.06c9.82 0.78 17.56 9.27 17.56 19.63 0 10.88-8.53 19.7-19.04 19.7h-50.79l0.01 44.06-0.05 1.49c-0.85 10.48-10.03 18.29-20.51 17.45-9.87-0.8-17.49-9.03-17.51-18.94v-44.06h-50.78l-1.48-0.06c-9.82-0.78-17.56-9.27-17.56-19.63 0-10.89 8.53-19.7 19.04-19.7h50.77v-27.21h-50.9l-1.54-0.06c-10.84-0.93-18.88-10.46-17.95-21.3 0.87-10.14 9.31-17.95 19.49-18.02l50.9-0.01v-2.1l-59.58-61.63-1.18-1.34c-6.36-7.87-5.85-19.25 1.18-26.52 7.18-7.44 19.04-7.64 26.47-0.46l0.01 0.01 0.44 0.45 50.9 52.66 50.92-52.66 1.25-1.17z" fill="#FFFFFF" p-id="1628"></path><path d="M443.73 274.57c-2.57 4.37-4.04 9.49-4.04 14.98 0 15.96 12.48 28.88 27.89 28.88H569.2c15.39 0 27.89-12.93 27.89-28.87 0-5.21-1.38-10.33-4.02-14.83l-149.34-0.16z" fill="#FEA13C" p-id="1629"></path></svg>